<svg width="29" height="21" viewBox="0 0 29 21" fill="none" xmlns="http://www.w3.org/2000/svg">
<g clip-path="url(#clip0_440_1145)">
<path d="M22.8268 20.8813H25.8914C27.5794 20.8813 28.4865 19.9826 28.4865 18.3613V2.50848C28.4865 0.887089 27.5794 0 25.8914 0H22.8268C21.1503 0 20.243 0.887089 20.243 2.51103V18.3613C20.243 19.9826 21.1503 20.8813 22.8268 20.8813Z" fill="#34C759"/>
<path d="M12.711 20.8813H15.7755C17.4635 20.8813 18.3708 19.9826 18.3708 18.3613V5.74872C18.3708 4.12732 17.4635 3.24023 15.7755 3.24023H12.711C11.0345 3.24023 10.1158 4.12732 10.1158 5.75126V18.3613C10.1158 19.9826 11.0345 20.8813 12.711 20.8813Z" fill="#34C759"/>
<path d="M2.58382 20.8812H5.64835C7.33631 20.8812 8.24356 19.9825 8.24356 18.3613V8.99261C8.24356 7.37122 7.33631 6.48413 5.64835 6.48413H2.58382C0.907252 6.48413 0 7.37122 0 8.99516V18.3613C0 19.9825 0.907252 20.8812 2.58382 20.8812Z" fill="#34C759"/>
</g>
<defs>
<clipPath id="clip0_440_1145">
<rect width="29" height="21" fill="white"/>
</clipPath>
</defs>
</svg>
